<?xml version="1.0" encoding="utf-8"?>
<!-- Generator: Adobe Illustrator 26.2.1, SVG Export Plug-In . SVG Version: 6.00 Build 0)  -->
<svg version="1.1" id="Capa_1" xmlns="http://www.w3.org/2000/svg" xmlns:xlink="http://www.w3.org/1999/xlink" x="0px" y="0px"
	 viewBox="0 0 595.28 595.28" style="enable-background:new 0 0 595.28 595.28;" xml:space="preserve">
<style type="text/css">
	.st0{fill:#FFFFFF;}
</style>
<g>
	<g>
		<polygon class="st0" points="352.73,387.37 206.83,387.37 206.83,208.39 385.81,208.39 385.81,304.51 364.85,304.51 
			364.85,229.36 227.79,229.36 227.79,366.41 352.73,366.41 		"/>
		<path class="st0" d="M195.01,207.78c1.54,0,2.85,0.55,3.94,1.62c1.09,1.09,1.63,2.4,1.63,3.94c0,1.53-0.54,2.83-1.63,3.92
			c-1.09,1.09-2.4,1.64-3.94,1.64c-1.53,0-2.84-0.55-3.93-1.64c-1.09-1.09-1.63-2.39-1.63-3.92c0-1.54,0.55-2.85,1.63-3.94
			C192.17,208.32,193.48,207.78,195.01,207.78 M195.01,217.66c1.19,0,2.21-0.42,3.05-1.26c0.84-0.85,1.26-1.86,1.26-3.05
			c0-1.2-0.42-2.22-1.26-3.06c-0.84-0.84-1.86-1.27-3.05-1.27c-1.18,0-2.2,0.43-3.05,1.27c-0.84,0.84-1.26,1.86-1.26,3.06
			c0,1.19,0.42,2.2,1.26,3.05C192.8,217.24,193.82,217.66,195.01,217.66 M197.04,213.75c0.44,0.38,0.67,0.86,0.67,1.44v1.12h-1.66
			v-0.72c0-0.28-0.1-0.52-0.3-0.72c-0.2-0.2-0.44-0.3-0.72-0.3h-0.8v1.75h-1.66v-4.8c0-0.32,0.12-0.59,0.34-0.81
			c0.23-0.23,0.5-0.34,0.81-0.34h2.1c0.59,0,1.05,0.2,1.41,0.6c0.32,0.36,0.47,0.8,0.47,1.31
			C197.69,212.88,197.48,213.38,197.04,213.75 M195.03,213.3c0.36,0,0.62-0.1,0.8-0.3c0.15-0.14,0.21-0.3,0.21-0.5
			c0-0.19-0.06-0.37-0.21-0.5c-0.18-0.24-0.44-0.36-0.8-0.36h-0.53c-0.19,0-0.27,0.08-0.27,0.27v1.39H195.03z"/>
		<g>
			<polygon class="st0" points="405.83,337.5 405.83,316.53 344.83,316.53 344.83,337.5 364.85,337.5 364.85,387.5 385.81,387.5 
				385.81,337.5 			"/>
		</g>
	</g>
</g>
</svg>
