<?xml version="1.0" encoding="utf-8"?>
<!-- Generator: Adobe Illustrator 26.2.1, SVG Export Plug-In . SVG Version: 6.00 Build 0)  -->
<svg version="1.1" id="Capa_1" xmlns="http://www.w3.org/2000/svg" xmlns:xlink="http://www.w3.org/1999/xlink" x="0px" y="0px"
	 viewBox="0 0 595.28 595.28" style="enable-background:new 0 0 595.28 595.28;" xml:space="preserve">
<style type="text/css">
	.st0{fill:#FFFFFF;}
	.st1{font-family:'Gotham-LightItalic';}
	.st2{font-size:10.8722px;}
</style>
<g>
	<polygon class="st0" points="262.87,332.46 194.11,332.46 194.11,248.11 278.46,248.11 278.46,293.41 268.58,293.41 268.58,257.99 
		203.99,257.99 203.99,322.58 262.87,322.58 	"/>
	<path class="st0" d="M188.54,247.82c0.73,0,1.34,0.26,1.86,0.77c0.51,0.51,0.77,1.13,0.77,1.86c0,0.72-0.26,1.33-0.77,1.85
		c-0.51,0.51-1.13,0.77-1.86,0.77c-0.72,0-1.34-0.26-1.85-0.77c-0.51-0.51-0.77-1.13-0.77-1.85c0-0.73,0.26-1.34,0.77-1.86
		C187.2,248.08,187.82,247.82,188.54,247.82 M188.54,252.48c0.56,0,1.04-0.2,1.44-0.59c0.4-0.4,0.6-0.88,0.6-1.44
		c0-0.57-0.2-1.05-0.6-1.44c-0.4-0.4-0.88-0.6-1.44-0.6c-0.56,0-1.04,0.2-1.44,0.6c-0.4,0.4-0.59,0.88-0.59,1.44
		c0,0.56,0.2,1.04,0.59,1.44C187.5,252.28,187.98,252.48,188.54,252.48 M189.5,250.64c0.21,0.18,0.31,0.41,0.31,0.68v0.53h-0.78
		v-0.34c0-0.13-0.05-0.24-0.14-0.34c-0.09-0.09-0.21-0.14-0.34-0.14h-0.38v0.82h-0.78v-2.26c0-0.15,0.05-0.28,0.16-0.38
		c0.11-0.11,0.24-0.16,0.38-0.16h0.99c0.28,0,0.5,0.09,0.66,0.28c0.15,0.17,0.22,0.38,0.22,0.62
		C189.81,250.23,189.71,250.46,189.5,250.64 M188.55,250.43c0.17,0,0.29-0.05,0.38-0.14c0.07-0.06,0.1-0.14,0.1-0.24
		c0-0.09-0.03-0.17-0.1-0.24c-0.08-0.11-0.21-0.17-0.38-0.17h-0.25c-0.09,0-0.13,0.04-0.13,0.13v0.66H188.55z"/>
	<g>
		<polygon class="st0" points="287.9,308.95 287.9,299.07 259.15,299.07 259.15,308.95 268.58,308.95 268.58,332.52 278.46,332.52 
			278.46,308.95 		"/>
		<path class="st0" d="M346.15,316.27c0.71-1.49,1.07-3.21,1.07-5.16v-0.09c0-1.83-0.32-3.48-0.97-4.93
			c-0.65-1.45-1.57-2.68-2.77-3.67c-1.2-0.99-2.66-1.76-4.36-2.27c-1.71-0.53-3.6-0.78-5.68-0.78h-14.21v32.63l-13.89-32.87h-8.86
			l-14.12,33.4h9.66l2.37-5.92h12.79l2.42,5.92h9.63h0.22h8.97v-9.48h4.55c2.05,0,3.96-0.25,5.71-0.76c1.75-0.5,3.26-1.26,4.53-2.27
			C344.45,319,345.44,317.75,346.15,316.27z M297.08,319.49l3.74-9.43l3.7,9.43H297.08z M338.02,311.5c0,1.33-0.46,2.39-1.4,3.17
			c-0.93,0.78-2.22,1.16-3.86,1.16h-4.36v-8.81h4.31c1.67,0,2.98,0.37,3.91,1.12c0.93,0.75,1.4,1.84,1.4,3.26V311.5z"/>
		<path class="st0" d="M400.92,320.95c2.09-0.88,3.74-2.16,4.98-3.84c1.23-1.67,1.85-3.79,1.85-6.35v-0.09
			c0-3.25-0.98-5.83-2.94-7.72c-1.11-1.13-2.54-2.02-4.31-2.65c-1.77-0.63-3.93-0.95-6.49-0.95h-15.68v32.78l-13.96-33.01h-8.86
			l-14.12,33.4h9.66l2.37-5.92h12.79l2.42,5.92h9.69h0.16h9.02v-10.04h3.93h0.1l6.68,10.04h10.61L400.92,320.95z M356.12,319.49
			l3.75-9.43l3.7,9.43H356.12z M398.5,311.34c0,1.2-0.43,2.16-1.28,2.87c-0.85,0.71-2.07,1.07-3.65,1.07h-6.06v-7.96h6.02
			c1.55,0,2.77,0.33,3.65,0.97c0.88,0.65,1.33,1.63,1.33,2.96V311.34z"/>
	</g>
</g>
<text transform="matrix(1 0 0 1 308.8218 345.2803)" class="st0 st1 st2">Calidad + Precio</text>
</svg>
