<?xml version="1.0" encoding="utf-8"?>
<!-- Generator: Adobe Illustrator 26.2.1, SVG Export Plug-In . SVG Version: 6.00 Build 0)  -->
<svg version="1.1" id="Capa_1" xmlns="http://www.w3.org/2000/svg" xmlns:xlink="http://www.w3.org/1999/xlink" x="0px" y="0px"
	 viewBox="0 0 595.28 595.28" style="enable-background:new 0 0 595.28 595.28;" xml:space="preserve">
<style type="text/css">
	.st0{fill:#00B451;}
	.st1{fill:#FFFFFF;}
</style>
<g>
	<g>
		<polygon class="st0" points="262.87,332.46 194.11,332.46 194.11,248.11 278.46,248.11 278.46,293.41 268.58,293.41 
			268.58,257.99 203.99,257.99 203.99,322.58 262.87,322.58 		"/>
		<path class="st1" d="M188.54,247.82c0.73,0,1.34,0.26,1.86,0.77c0.51,0.51,0.77,1.13,0.77,1.86c0,0.72-0.26,1.33-0.77,1.85
			c-0.51,0.51-1.13,0.77-1.86,0.77c-0.72,0-1.34-0.26-1.85-0.77c-0.51-0.51-0.77-1.13-0.77-1.85c0-0.73,0.26-1.34,0.77-1.86
			C187.2,248.08,187.82,247.82,188.54,247.82 M188.54,252.48c0.56,0,1.04-0.2,1.44-0.59c0.4-0.4,0.6-0.88,0.6-1.44
			c0-0.57-0.2-1.05-0.6-1.44c-0.4-0.4-0.88-0.6-1.44-0.6c-0.56,0-1.04,0.2-1.44,0.6c-0.4,0.4-0.59,0.88-0.59,1.44
			c0,0.56,0.2,1.04,0.59,1.44C187.5,252.28,187.98,252.48,188.54,252.48 M189.5,250.64c0.21,0.18,0.31,0.41,0.31,0.68v0.53h-0.78
			v-0.34c0-0.13-0.05-0.24-0.14-0.34c-0.09-0.09-0.21-0.14-0.34-0.14h-0.38v0.82h-0.78v-2.26c0-0.15,0.05-0.28,0.16-0.38
			c0.11-0.11,0.24-0.16,0.38-0.16h0.99c0.28,0,0.5,0.09,0.66,0.28c0.15,0.17,0.22,0.38,0.22,0.62
			C189.81,250.23,189.71,250.46,189.5,250.64 M188.55,250.43c0.17,0,0.29-0.05,0.38-0.14c0.07-0.06,0.1-0.14,0.1-0.24
			c0-0.09-0.03-0.17-0.1-0.24c-0.08-0.11-0.21-0.17-0.38-0.17h-0.25c-0.09,0-0.13,0.04-0.13,0.13v0.66H188.55z"/>
		<g>
			<polygon class="st1" points="287.9,308.95 287.9,299.07 259.15,299.07 259.15,308.95 268.58,308.95 268.58,332.52 278.46,332.52 
				278.46,308.95 			"/>
			<path class="st1" d="M346.15,316.27c0.71-1.49,1.07-3.21,1.07-5.16v-0.09c0-1.83-0.32-3.48-0.97-4.93
				c-0.65-1.45-1.57-2.68-2.77-3.67c-1.2-0.99-2.66-1.76-4.36-2.27c-1.71-0.53-3.6-0.78-5.68-0.78h-14.21v32.63l-13.89-32.87h-8.86
				l-14.12,33.4h9.66l2.37-5.92h12.79l2.42,5.92h9.63h0.22h8.97v-9.48h4.55c2.05,0,3.96-0.25,5.71-0.76
				c1.75-0.5,3.26-1.26,4.53-2.27C344.45,319,345.44,317.75,346.15,316.27z M297.08,319.49l3.74-9.43l3.7,9.43H297.08z
				 M338.02,311.5c0,1.33-0.46,2.39-1.4,3.17c-0.93,0.78-2.22,1.16-3.86,1.16h-4.36v-8.81h4.31c1.67,0,2.98,0.37,3.91,1.12
				c0.93,0.75,1.4,1.84,1.4,3.26V311.5z"/>
			<path class="st1" d="M400.92,320.95c2.09-0.88,3.74-2.16,4.98-3.84c1.23-1.67,1.85-3.79,1.85-6.35v-0.09
				c0-3.25-0.98-5.83-2.94-7.72c-1.11-1.13-2.54-2.02-4.31-2.65c-1.77-0.63-3.93-0.95-6.49-0.95h-15.68v32.78l-13.96-33.01h-8.86
				l-14.12,33.4h9.66l2.37-5.92h12.79l2.42,5.92h9.69h0.16h9.02v-10.04h3.93h0.1l6.68,10.04h10.61L400.92,320.95z M356.12,319.49
				l3.75-9.43l3.7,9.43H356.12z M398.5,311.34c0,1.2-0.43,2.16-1.28,2.87c-0.85,0.71-2.07,1.07-3.65,1.07h-6.06v-7.96h6.02
				c1.55,0,2.77,0.33,3.65,0.97c0.88,0.65,1.33,1.63,1.33,2.96V311.34z"/>
		</g>
	</g>
	<g>
		<path class="st1" d="M311.73,345.21c-0.38-0.14-0.71-0.34-0.99-0.61s-0.5-0.59-0.67-0.97c-0.16-0.38-0.25-0.82-0.25-1.29
			c0-0.62,0.12-1.21,0.35-1.79c0.24-0.58,0.56-1.09,0.97-1.53c0.41-0.45,0.89-0.8,1.44-1.07c0.55-0.27,1.14-0.4,1.77-0.4
			c0.35,0,0.67,0.04,0.96,0.12c0.29,0.08,0.55,0.2,0.79,0.35c0.24,0.15,0.44,0.32,0.61,0.52s0.32,0.42,0.43,0.65l-0.49,0.26
			c-0.12-0.21-0.26-0.4-0.4-0.58c-0.14-0.17-0.31-0.32-0.5-0.44c-0.19-0.12-0.4-0.21-0.64-0.28c-0.24-0.07-0.5-0.1-0.8-0.1
			c-0.55,0-1.07,0.12-1.54,0.37c-0.48,0.24-0.89,0.56-1.24,0.96s-0.63,0.85-0.83,1.37s-0.3,1.04-0.3,1.57c0,0.4,0.07,0.76,0.2,1.08
			c0.13,0.32,0.31,0.59,0.54,0.82c0.23,0.22,0.5,0.4,0.82,0.52c0.32,0.12,0.66,0.18,1.03,0.18c0.57,0,1.05-0.1,1.45-0.31
			c0.4-0.21,0.78-0.48,1.12-0.83l0.38,0.35c-0.17,0.18-0.36,0.35-0.57,0.51s-0.43,0.3-0.67,0.42c-0.25,0.12-0.52,0.21-0.81,0.28
			c-0.29,0.07-0.61,0.1-0.96,0.1C312.5,345.42,312.1,345.35,311.73,345.21z"/>
		<path class="st1" d="M319.07,345.31c-0.22-0.06-0.41-0.16-0.58-0.29c-0.17-0.13-0.31-0.29-0.41-0.48
			c-0.1-0.19-0.15-0.42-0.15-0.68c0-0.3,0.06-0.58,0.18-0.83s0.3-0.46,0.52-0.64c0.22-0.17,0.49-0.31,0.79-0.4
			c0.31-0.09,0.64-0.14,1.01-0.14c0.4,0,0.78,0.03,1.16,0.1c0.37,0.07,0.7,0.14,0.97,0.22l0.04-0.15c0.02-0.08,0.04-0.17,0.05-0.28
			s0.02-0.2,0.02-0.28c0-0.42-0.14-0.74-0.43-0.96c-0.29-0.22-0.7-0.33-1.24-0.33c-0.3,0-0.58,0.03-0.83,0.08s-0.51,0.12-0.78,0.22
			l-0.1-0.48c0.28-0.1,0.55-0.18,0.82-0.24c0.27-0.05,0.58-0.08,0.93-0.08c0.68,0,1.21,0.15,1.59,0.46
			c0.38,0.31,0.57,0.73,0.57,1.27c0,0.1-0.01,0.22-0.03,0.35c-0.02,0.13-0.05,0.26-0.08,0.38l-0.85,3.17h-0.52l0.25-0.96
			c-0.27,0.32-0.59,0.58-0.95,0.78c-0.37,0.2-0.79,0.3-1.28,0.3C319.52,345.41,319.29,345.38,319.07,345.31z M320.64,344.79
			c0.26-0.09,0.51-0.21,0.73-0.38c0.23-0.16,0.43-0.36,0.59-0.58c0.17-0.22,0.29-0.48,0.37-0.76l0.13-0.49
			c-0.28-0.07-0.6-0.13-0.95-0.18s-0.73-0.08-1.15-0.08c-0.28,0-0.53,0.04-0.76,0.11s-0.42,0.17-0.59,0.3
			c-0.16,0.13-0.29,0.28-0.38,0.46s-0.14,0.38-0.14,0.59c0,0.35,0.12,0.62,0.36,0.83s0.57,0.3,0.98,0.3
			C320.12,344.92,320.38,344.88,320.64,344.79z"/>
		<path class="st1" d="M327.21,337.34h0.53l-2.13,7.94h-0.53L327.21,337.34z"/>
		<path class="st1" d="M330.12,339.74h0.53l-1.49,5.54h-0.53L330.12,339.74z M330.64,337.56h0.66l-0.2,0.73h-0.66L330.64,337.56z"/>
		<path class="st1" d="M333.77,345.25c-0.27-0.12-0.51-0.28-0.71-0.48c-0.2-0.21-0.35-0.45-0.47-0.74s-0.17-0.6-0.17-0.94
			c0-0.49,0.08-0.95,0.26-1.38c0.17-0.42,0.4-0.79,0.69-1.1s0.62-0.56,1-0.73s0.77-0.27,1.19-0.27c0.31,0,0.59,0.04,0.83,0.13
			s0.45,0.2,0.63,0.35c0.18,0.15,0.33,0.31,0.45,0.5c0.12,0.19,0.22,0.38,0.29,0.58l1.02-3.82h0.53l-2.12,7.94h-0.53l0.28-1.08
			c-0.28,0.33-0.6,0.62-0.98,0.86s-0.82,0.36-1.31,0.36C334.33,345.42,334.04,345.36,333.77,345.25z M335.73,344.67
			c0.33-0.16,0.62-0.38,0.89-0.64c0.26-0.26,0.47-0.57,0.63-0.91c0.16-0.35,0.24-0.7,0.24-1.07c0-0.27-0.04-0.52-0.14-0.75
			s-0.22-0.44-0.39-0.61c-0.17-0.17-0.37-0.31-0.61-0.41s-0.5-0.15-0.78-0.15c-0.38,0-0.72,0.08-1.04,0.24
			c-0.32,0.16-0.59,0.37-0.82,0.64c-0.23,0.27-0.41,0.58-0.53,0.92s-0.19,0.72-0.19,1.1c0,0.28,0.04,0.54,0.12,0.77
			c0.08,0.24,0.2,0.44,0.35,0.6c0.15,0.17,0.33,0.29,0.54,0.38c0.21,0.09,0.44,0.13,0.7,0.13
			C335.07,344.91,335.4,344.83,335.73,344.67z"/>
		<path class="st1" d="M341.18,345.31c-0.22-0.06-0.41-0.16-0.58-0.29c-0.17-0.13-0.31-0.29-0.41-0.48
			c-0.1-0.19-0.15-0.42-0.15-0.68c0-0.3,0.06-0.58,0.18-0.83s0.3-0.46,0.52-0.64c0.22-0.17,0.49-0.31,0.79-0.4
			c0.31-0.09,0.64-0.14,1.01-0.14c0.4,0,0.78,0.03,1.16,0.1c0.37,0.07,0.7,0.14,0.97,0.22l0.04-0.15c0.02-0.08,0.04-0.17,0.05-0.28
			s0.02-0.2,0.02-0.28c0-0.42-0.14-0.74-0.43-0.96c-0.29-0.22-0.7-0.33-1.24-0.33c-0.3,0-0.58,0.03-0.83,0.08s-0.51,0.12-0.78,0.22
			l-0.1-0.48c0.28-0.1,0.55-0.18,0.82-0.24c0.27-0.05,0.58-0.08,0.93-0.08c0.68,0,1.21,0.15,1.59,0.46
			c0.38,0.31,0.57,0.73,0.57,1.27c0,0.1-0.01,0.22-0.03,0.35c-0.02,0.13-0.05,0.26-0.08,0.38l-0.85,3.17h-0.52l0.25-0.96
			c-0.27,0.32-0.59,0.58-0.95,0.78c-0.37,0.2-0.79,0.3-1.28,0.3C341.62,345.41,341.39,345.38,341.18,345.31z M342.74,344.79
			c0.26-0.09,0.51-0.21,0.73-0.38c0.23-0.16,0.43-0.36,0.59-0.58c0.17-0.22,0.29-0.48,0.37-0.76l0.13-0.49
			c-0.28-0.07-0.6-0.13-0.95-0.18s-0.73-0.08-1.15-0.08c-0.28,0-0.53,0.04-0.76,0.11s-0.42,0.17-0.59,0.3
			c-0.16,0.13-0.29,0.28-0.38,0.46s-0.14,0.38-0.14,0.59c0,0.35,0.12,0.62,0.36,0.83s0.57,0.3,0.98,0.3
			C342.22,344.92,342.48,344.88,342.74,344.79z"/>
		<path class="st1" d="M348.76,345.25c-0.27-0.12-0.51-0.28-0.71-0.48c-0.2-0.21-0.35-0.45-0.47-0.74s-0.17-0.6-0.17-0.94
			c0-0.49,0.08-0.95,0.26-1.38c0.17-0.42,0.4-0.79,0.69-1.1s0.62-0.56,1-0.73s0.77-0.27,1.19-0.27c0.31,0,0.59,0.04,0.83,0.13
			s0.45,0.2,0.63,0.35c0.18,0.15,0.33,0.31,0.45,0.5c0.12,0.19,0.22,0.38,0.29,0.58l1.02-3.82h0.53l-2.12,7.94h-0.53l0.28-1.08
			c-0.28,0.33-0.6,0.62-0.98,0.86s-0.82,0.36-1.31,0.36C349.33,345.42,349.03,345.36,348.76,345.25z M350.73,344.67
			c0.33-0.16,0.62-0.38,0.89-0.64c0.26-0.26,0.47-0.57,0.63-0.91c0.16-0.35,0.24-0.7,0.24-1.07c0-0.27-0.04-0.52-0.14-0.75
			s-0.22-0.44-0.39-0.61c-0.17-0.17-0.37-0.31-0.61-0.41s-0.5-0.15-0.78-0.15c-0.38,0-0.72,0.08-1.04,0.24
			c-0.32,0.16-0.59,0.37-0.82,0.64c-0.23,0.27-0.41,0.58-0.53,0.92s-0.19,0.72-0.19,1.1c0,0.28,0.04,0.54,0.12,0.77
			c0.08,0.24,0.2,0.44,0.35,0.6c0.15,0.17,0.33,0.29,0.54,0.38c0.21,0.09,0.44,0.13,0.7,0.13
			C350.06,344.91,350.4,344.83,350.73,344.67z"/>
		<path class="st1" d="M362.29,341.71h-2.36l0.14-0.51h2.36l0.62-2.35h0.54l-0.62,2.35h2.36l-0.14,0.51h-2.36l-0.63,2.34h-0.54
			L362.29,341.71z"/>
		<path class="st1" d="M373.21,337.67h2.37c0.46,0,0.86,0.06,1.22,0.17c0.35,0.11,0.65,0.29,0.88,0.52c0.35,0.35,0.52,0.8,0.52,1.36
			c0,0.43-0.09,0.82-0.27,1.16c-0.18,0.34-0.43,0.62-0.75,0.85c-0.33,0.23-0.72,0.41-1.19,0.53c-0.46,0.12-0.98,0.18-1.55,0.18
			h-1.94l-0.77,2.85h-0.57L373.21,337.67z M374.45,341.92c1.03,0,1.82-0.19,2.36-0.57s0.82-0.92,0.82-1.62
			c0-0.41-0.13-0.75-0.39-1.01c-0.36-0.36-0.91-0.53-1.67-0.53h-1.94l-1,3.74H374.45z"/>
		<path class="st1" d="M380.56,339.74h0.53l-0.41,1.58c0.18-0.25,0.38-0.49,0.59-0.7s0.43-0.39,0.67-0.54
			c0.24-0.14,0.49-0.25,0.75-0.33s0.54-0.11,0.84-0.09l-0.15,0.59h-0.04c-0.32,0-0.64,0.06-0.96,0.18c-0.32,0.12-0.62,0.3-0.9,0.54
			c-0.28,0.24-0.53,0.53-0.75,0.87c-0.22,0.34-0.38,0.74-0.5,1.18l-0.61,2.27h-0.53L380.56,339.74z"/>
		<path class="st1" d="M385.07,342.88c0,0.06,0,0.13,0,0.18c0,0.28,0.04,0.53,0.14,0.76s0.22,0.42,0.38,0.58
			c0.16,0.16,0.35,0.29,0.58,0.37c0.22,0.09,0.47,0.13,0.75,0.13c0.42,0,0.77-0.07,1.06-0.21c0.29-0.14,0.56-0.32,0.83-0.53
			l0.32,0.38c-0.29,0.24-0.61,0.44-0.95,0.61c-0.34,0.17-0.76,0.26-1.26,0.26c-0.36,0-0.68-0.06-0.97-0.17
			c-0.29-0.11-0.55-0.27-0.76-0.48c-0.21-0.21-0.38-0.45-0.5-0.74c-0.12-0.29-0.18-0.6-0.18-0.94c0-0.43,0.08-0.86,0.24-1.28
			s0.39-0.79,0.68-1.11s0.63-0.59,1.02-0.79c0.39-0.2,0.81-0.3,1.26-0.3c0.35,0,0.65,0.06,0.91,0.17s0.48,0.27,0.66,0.46
			c0.18,0.2,0.31,0.42,0.4,0.68c0.09,0.26,0.13,0.53,0.13,0.81c0,0.36-0.05,0.68-0.15,0.97h-4.56
			C385.08,342.75,385.08,342.81,385.07,342.88z M389.21,342.21c0.01-0.05,0.03-0.11,0.03-0.19c0.01-0.08,0.01-0.17,0.01-0.27
			c0-0.22-0.03-0.44-0.09-0.64s-0.16-0.38-0.29-0.53c-0.13-0.15-0.29-0.27-0.49-0.36c-0.2-0.09-0.43-0.14-0.7-0.14
			c-0.31,0-0.6,0.06-0.87,0.17s-0.51,0.27-0.73,0.46c-0.22,0.2-0.4,0.42-0.55,0.68c-0.15,0.26-0.27,0.53-0.35,0.81H389.21z"/>
		<path class="st1" d="M393.19,345.25c-0.29-0.1-0.55-0.26-0.77-0.47c-0.22-0.21-0.41-0.46-0.54-0.75
			c-0.14-0.29-0.21-0.63-0.21-1.02c0-0.46,0.09-0.89,0.26-1.3s0.41-0.77,0.71-1.09c0.3-0.32,0.65-0.57,1.04-0.75
			c0.39-0.18,0.81-0.28,1.25-0.28c0.28,0,0.54,0.04,0.77,0.11s0.44,0.18,0.61,0.3s0.33,0.27,0.46,0.43c0.13,0.16,0.24,0.33,0.33,0.5
			l-0.45,0.25c-0.09-0.14-0.18-0.28-0.29-0.42c-0.11-0.13-0.23-0.25-0.37-0.35s-0.3-0.18-0.48-0.23c-0.18-0.06-0.39-0.09-0.62-0.09
			c-0.36,0-0.69,0.08-1.01,0.23c-0.32,0.16-0.6,0.37-0.84,0.63c-0.24,0.27-0.44,0.57-0.58,0.92c-0.14,0.35-0.22,0.71-0.22,1.08
			c0,0.31,0.05,0.58,0.16,0.82s0.25,0.44,0.42,0.6c0.17,0.16,0.37,0.29,0.6,0.37s0.46,0.12,0.7,0.12c0.36,0,0.69-0.07,0.98-0.22
			c0.29-0.15,0.56-0.34,0.82-0.58l0.36,0.35c-0.28,0.28-0.6,0.5-0.96,0.68c-0.36,0.18-0.77,0.27-1.22,0.27
			C393.78,345.41,393.48,345.36,393.19,345.25z"/>
		<path class="st1" d="M399.92,339.74h0.53l-1.49,5.54h-0.53L399.92,339.74z M400.44,337.56h0.66l-0.2,0.73h-0.66L400.44,337.56z"/>
		<path class="st1" d="M403.65,345.23c-0.3-0.12-0.56-0.29-0.78-0.51c-0.22-0.22-0.39-0.48-0.51-0.78c-0.12-0.3-0.18-0.63-0.18-0.98
			c0-0.44,0.09-0.86,0.27-1.26c0.18-0.41,0.42-0.76,0.72-1.07c0.3-0.31,0.65-0.55,1.05-0.74c0.4-0.18,0.82-0.28,1.26-0.28
			c0.37,0,0.71,0.06,1.01,0.19s0.56,0.29,0.78,0.51s0.39,0.48,0.51,0.78c0.12,0.3,0.18,0.63,0.18,0.98c0,0.45-0.09,0.88-0.27,1.28
			c-0.18,0.41-0.42,0.76-0.73,1.07c-0.3,0.3-0.66,0.55-1.05,0.73c-0.4,0.18-0.81,0.27-1.24,0.27
			C404.29,345.41,403.95,345.35,403.65,345.23z M405.7,344.67c0.32-0.15,0.61-0.36,0.85-0.61c0.25-0.26,0.45-0.55,0.6-0.89
			c0.15-0.34,0.23-0.7,0.23-1.08c0-0.63-0.18-1.11-0.54-1.46c-0.36-0.34-0.83-0.51-1.41-0.51c-0.35,0-0.68,0.08-1,0.23
			c-0.32,0.16-0.61,0.36-0.85,0.62c-0.25,0.26-0.44,0.56-0.59,0.9c-0.15,0.34-0.22,0.69-0.22,1.06c0,0.63,0.18,1.11,0.54,1.46
			s0.83,0.51,1.41,0.51C405.05,344.9,405.38,344.82,405.7,344.67z"/>
	</g>
</g>
</svg>
